<svg width="281" height="127" viewBox="0 0 281 127" fill="none" xmlns="http://www.w3.org/2000/svg">
<g filter="url(#filter0_d_111_38601)">
<path d="M40.1586 54.2271V85.7229H50.5606V77.489H53.9379C61.9534 77.489 68.0775 74.6994 68.0775 65.8806C68.0775 57.0167 61.9534 54.2271 53.9379 54.2271H40.1586ZM57.7655 65.8806C57.7655 68.0403 56.2345 68.9402 53.8479 68.9402H50.5606V62.776H53.8479C56.2345 62.776 57.7655 63.6759 57.7655 65.8806Z" fill="white"/>
<path d="M71.205 54.2271V85.7229H95.0712V76.6341H81.6071V54.2271H71.205Z" fill="white"/>
<path d="M106.001 85.7229L107.397 81.5385H118.295L119.646 85.7229H130.183L118.43 54.2271H107.262L95.4642 85.7229H106.001ZM111.99 67.3204C112.306 66.1505 112.621 64.8907 112.846 63.2709C113.071 64.8907 113.386 66.1505 113.747 67.3204L115.953 74.0245H109.784L111.99 67.3204Z" fill="white"/>
<path d="M129.487 70.29C129.487 81.7635 138.087 86.4428 147.003 86.4428C150.336 86.4428 153.443 85.8129 156.235 84.5531V75.0593C154.614 76.4992 151.597 77.3091 148.354 77.3091C144.212 77.3091 140.159 75.2393 140.159 70.29C140.159 64.6657 144.257 62.506 148.58 62.506C151.371 62.506 154.253 63.4509 156.01 64.6657V55.397C153.218 54.1371 149.975 53.5072 146.733 53.5072C138.087 53.5072 129.442 58.3216 129.487 70.29Z" fill="white"/>
<path d="M160.035 54.2271V85.7229H184.171V77.444H170.437V73.7095H182.28V66.0605H170.437V62.416H183.901V54.2271H160.035Z" fill="white"/>
<rect x="208.591" y="53.629" width="10.5226" height="31.5679" fill="#4656E3"/>
<path d="M240.159 64.1515C227.531 64.1515 219.183 78.2168 219.113 85.1968H208.591C208.591 74.6741 219.113 53.6288 240.159 53.6288V64.1515Z" fill="#4D5EF6"/>
<path d="M196.068 53.6291L188.605 53.6291C188.605 65.8666 196.068 74.324 202.558 74.324C208.59 74.324 215.862 65.6463 215.862 53.6291L208.59 53.6291C208.59 58.1463 205.154 66.2118 202.558 66.2118C199.962 66.2118 196.068 58.2371 196.068 53.6291Z" fill="#F64D4D"/>
<path d="M240.159 74.6743C227.531 74.6743 219.183 60.609 219.113 53.629H208.591C208.591 64.1517 219.113 85.197 240.159 85.197V74.6743Z" fill="#FE5F5F"/>
<rect x="185.546" y="53.629" width="10.5226" height="31.5679" fill="#E34646"/>
<rect x="208.591" y="40.3701" width="10.5226" height="10.5226" fill="#FE5F5F"/>
<path d="M106.81 50.6804H104.534V44.3303H104.484L101.968 50.5747H100.488L97.9792 44.3303H97.9229V50.6804H95.6464V40.5104H98.6347L101.2 47.0437H101.256L103.822 40.5104H106.81V50.6804Z" fill="white"/>
<path d="M114.394 48.4462H111.067L110.419 50.6804H107.783L111.201 40.5104H114.365L117.784 50.6804H115.035L114.394 48.4462ZM111.567 46.5856H113.886L112.758 42.6671H112.702L111.567 46.5856Z" fill="white"/>
<path d="M122.914 40.5104C124.455 40.5104 125.651 40.9427 126.502 41.8072C127.357 42.6811 127.784 43.9239 127.784 45.5355C127.784 47.1565 127.357 48.4204 126.502 49.3272C125.647 50.2293 124.451 50.6804 122.914 50.6804H118.763V40.5104H122.914ZM121.35 48.5943H122.569C124.293 48.5943 125.156 47.577 125.156 45.5426C125.156 44.5934 124.93 43.8628 124.479 43.3507C124.028 42.8479 123.391 42.5966 122.569 42.5966H121.35V48.5943Z" fill="white"/>
<path d="M136.023 50.6804H129.053V40.5104H136.023V42.5966H131.64V44.6193H135.763V46.5222H131.64V48.5943H136.023V50.6804Z" fill="white"/>
<path d="M140.4 50.6804V40.5104H142.986V50.6804H140.4Z" fill="white"/>
<path d="M144.53 50.6804V40.5104H146.595L150.908 46.4235H150.965V40.5104H153.417V50.6804H151.373L147.039 44.7109H146.983V50.6804H144.53Z" fill="white"/>
<path d="M157.879 50.6804V40.5104H160.465V44.9787H160.521L163.982 40.5104H166.759L163.214 45.0281L166.963 50.6804H163.926L161.332 46.7054L160.465 47.8049V50.6804H157.879Z" fill="white"/>
<path d="M172.08 40.3342C173.621 40.3342 174.843 40.8064 175.745 41.7508C176.647 42.6952 177.098 43.9779 177.098 45.5989C177.098 47.2199 176.647 48.5003 175.745 49.44C174.843 50.3844 173.621 50.8566 172.08 50.8566C170.534 50.8566 169.31 50.3844 168.408 49.44C167.506 48.5003 167.055 47.2199 167.055 45.5989C167.055 43.9779 167.508 42.6952 168.415 41.7508C169.317 40.8064 170.539 40.3342 172.08 40.3342ZM172.08 42.4345C171.356 42.4345 170.778 42.7187 170.346 43.2873C169.909 43.8605 169.691 44.631 169.691 45.5989C169.691 46.5621 169.907 47.3303 170.339 47.9036C170.771 48.4721 171.352 48.7564 172.08 48.7564C172.803 48.7564 173.381 48.4721 173.814 47.9036C174.251 47.3303 174.469 46.5621 174.469 45.5989C174.469 44.631 174.251 43.8605 173.814 43.2873C173.381 42.7187 172.803 42.4345 172.08 42.4345Z" fill="white"/>
<path d="M180.946 45.3523H182.475C182.95 45.3523 183.321 45.2231 183.589 44.9646C183.857 44.7062 183.991 44.3562 183.991 43.9145C183.991 43.4775 183.852 43.1275 183.575 42.8644C183.298 42.5966 182.929 42.4627 182.468 42.4627H180.946V45.3523ZM180.946 50.6804H178.359V40.5104H182.729C183.988 40.5104 184.956 40.8064 185.633 41.3984C186.3 41.9811 186.634 42.8033 186.634 43.8652C186.634 44.5042 186.483 45.0774 186.182 45.5848C185.872 46.1158 185.445 46.5011 184.9 46.7407L186.93 50.6804H184.026L182.285 47.1213H180.946V50.6804Z" fill="white"/>
<path d="M194.901 50.6804H187.93V40.5104H194.901V42.5966H190.517V44.6193H194.64V46.5222H190.517V48.5943H194.901V50.6804Z" fill="white"/>
<path d="M202.407 48.4462H199.08L198.432 50.6804H195.796L199.214 40.5104H202.378L205.796 50.6804H203.048L202.407 48.4462ZM199.58 46.5856H201.899L200.771 42.6671H200.715L199.58 46.5856Z" fill="white"/>
</g>
<defs>
<filter id="filter0_d_111_38601" x="0.158569" y="0.334229" width="280" height="126.109" filterUnits="userSpaceOnUse" color-interpolation-filters="sRGB">
<feFlood flood-opacity="0" result="BackgroundImageFix"/>
<feColorMatrix in="SourceAlpha" type="matrix" values="0 0 0 0 0 0 0 0 0 0 0 0 0 0 0 0 0 0 127 0" result="hardAlpha"/>
<feOffset/>
<feGaussianBlur stdDeviation="20"/>
<feColorMatrix type="matrix" values="0 0 0 0 0 0 0 0 0 0 0 0 0 0 0 0 0 0 0.12 0"/>
<feBlend mode="normal" in2="BackgroundImageFix" result="effect1_dropShadow_111_38601"/>
<feBlend mode="normal" in="SourceGraphic" in2="effect1_dropShadow_111_38601" result="shape"/>
</filter>
</defs>
</svg>
