<svg width="188" height="64" viewBox="0 0 188 64" fill="none" xmlns="http://www.w3.org/2000/svg">
<path d="M0 12.8341V42.3208H9.7385V34.6121H12.9004C20.4045 34.6121 26.138 32.0005 26.138 23.7442C26.138 15.4458 20.4045 12.8341 12.9004 12.8341H0ZM16.4838 23.7442C16.4838 25.7661 15.0504 26.6086 12.816 26.6086H9.7385V20.8377H12.816C15.0504 20.8377 16.4838 21.6801 16.4838 23.7442Z" fill="black"/>
<path d="M29.066 12.8341V42.3208H51.4097V33.8118H38.8045V12.8341H29.066Z" fill="black"/>
<path d="M61.6426 42.3208L62.9495 38.4033H73.1517L74.4165 42.3208H84.2814L73.2782 12.8341H62.823L51.7776 42.3208H61.6426ZM67.2496 25.0922C67.5447 23.9969 67.8398 22.8175 68.0506 21.301C68.2614 22.8175 68.5565 23.9969 68.8938 25.0922L70.9595 31.3686H65.1839L67.2496 25.0922Z" fill="black"/>
<path d="M83.6296 27.8723C83.6296 38.6139 91.6818 42.9948 100.029 42.9948C103.149 42.9948 106.058 42.405 108.671 41.2256V32.3374C107.154 33.6854 104.329 34.4436 101.294 34.4436C97.4153 34.4436 93.6211 32.5059 93.6211 27.8723C93.6211 22.6069 97.4575 20.5849 101.505 20.5849C104.118 20.5849 106.817 21.4695 108.461 22.6069V13.9294C105.847 12.7499 102.812 12.1602 99.7761 12.1602C91.6818 12.1602 83.5875 16.6674 83.6296 27.8723Z" fill="black"/>
<path d="M112.229 12.8341V42.3208H134.826V34.57H121.968V31.0737H133.055V23.9127H121.968V20.5007H134.573V12.8341H112.229Z" fill="black"/>
<path d="M3.61475 52.2803V60.1006H2.95947V52.2803H3.61475ZM6.29492 52.2803V52.8496H0.284668V52.2803H6.29492ZM6.58088 57.2861V57.1089C6.58088 56.6864 6.64175 56.2961 6.7635 55.938C6.88524 55.5799 7.05891 55.2702 7.28449 55.0088C7.51366 54.7474 7.78758 54.5451 8.10627 54.4019C8.42495 54.255 8.77945 54.1816 9.16975 54.1816C9.56363 54.1816 9.91991 54.255 10.2386 54.4019C10.5573 54.5451 10.8312 54.7474 11.0604 55.0088C11.2895 55.2702 11.465 55.5799 11.5867 55.938C11.7085 56.2961 11.7694 56.6864 11.7694 57.1089V57.2861C11.7694 57.7087 11.7085 58.099 11.5867 58.457C11.465 58.8115 11.2895 59.1195 11.0604 59.3809C10.8348 59.6423 10.5626 59.8464 10.244 59.9932C9.92528 60.1364 9.57079 60.208 9.18049 60.208C8.78661 60.208 8.43033 60.1364 8.11164 59.9932C7.79296 59.8464 7.51903 59.6423 7.28986 59.3809C7.0607 59.1195 6.88524 58.8115 6.7635 58.457C6.64175 58.099 6.58088 57.7087 6.58088 57.2861ZM7.22004 57.1089V57.2861C7.22004 57.6048 7.26301 57.9074 7.34895 58.1938C7.43488 58.4767 7.56021 58.7292 7.72492 58.9512C7.88964 59.1696 8.09374 59.3415 8.33723 59.4668C8.58072 59.5921 8.8618 59.6548 9.18049 59.6548C9.49559 59.6548 9.7731 59.5921 10.013 59.4668C10.2565 59.3415 10.4606 59.1696 10.6253 58.9512C10.79 58.7292 10.9136 58.4767 10.9959 58.1938C11.0819 57.9074 11.1248 57.6048 11.1248 57.2861V57.1089C11.1248 56.7938 11.0819 56.4948 10.9959 56.2119C10.9136 55.929 10.7882 55.6766 10.6199 55.4546C10.4552 55.2326 10.2511 55.0571 10.0076 54.9282C9.76415 54.7993 9.48485 54.7349 9.16975 54.7349C8.85464 54.7349 8.57534 54.7993 8.33186 54.9282C8.09195 55.0571 7.88784 55.2326 7.71955 55.4546C7.55484 55.6766 7.42951 55.929 7.34357 56.2119C7.26122 56.4948 7.22004 56.7938 7.22004 57.1089ZM15.7238 57.4204H13.6828L13.672 56.8833H15.4122C15.7632 56.8833 16.055 56.8457 16.2877 56.7705C16.5241 56.6917 16.7013 56.5754 16.8195 56.4214C16.9412 56.2674 17.0021 56.0776 17.0021 55.8521C17.0021 55.6802 16.9663 55.5298 16.8947 55.4009C16.8266 55.272 16.7228 55.1663 16.5831 55.084C16.4471 55.0016 16.2752 54.9408 16.0675 54.9014C15.8634 54.8584 15.6253 54.8369 15.3532 54.8369H13.8654V60.1006H13.2262V54.2891H15.3532C15.7077 54.2891 16.0246 54.3213 16.3038 54.3857C16.5867 54.4466 16.8284 54.5397 17.0289 54.665C17.2295 54.7904 17.3816 54.9515 17.4855 55.1484C17.5929 55.3418 17.6466 55.571 17.6466 55.8359C17.6466 56.015 17.6126 56.1833 17.5446 56.3408C17.4765 56.4948 17.3763 56.6344 17.2438 56.7598C17.1149 56.8815 16.9555 56.9818 16.7658 57.0605C16.576 57.1357 16.3576 57.1823 16.1105 57.2002L15.7238 57.4204ZM15.7238 60.1006H13.484L13.7311 59.5527H15.7238C16.046 59.5527 16.32 59.5116 16.5455 59.4292C16.7711 59.3468 16.9412 59.2251 17.0558 59.064C17.174 58.9028 17.233 58.7077 17.233 58.4785C17.233 58.2637 17.174 58.0775 17.0558 57.9199C16.9412 57.7624 16.7711 57.6406 16.5455 57.5547C16.32 57.4652 16.046 57.4204 15.7238 57.4204H14.2413L14.2521 56.8833H16.1588L16.4328 57.0874C16.7264 57.1125 16.9806 57.1912 17.1954 57.3237C17.4103 57.4562 17.5768 57.6245 17.695 57.8286C17.8131 58.0291 17.8722 58.2493 17.8722 58.4893C17.8722 58.7542 17.8221 58.9888 17.7218 59.1929C17.6216 59.3934 17.4765 59.5617 17.2868 59.6978C17.1006 59.8302 16.875 59.9305 16.61 59.9985C16.345 60.0666 16.0496 60.1006 15.7238 60.1006ZM22.9008 59.0586V56.0615C22.9008 55.7858 22.8435 55.5477 22.729 55.3472C22.6144 55.1466 22.4461 54.9927 22.2241 54.8853C22.0021 54.7778 21.7282 54.7241 21.4023 54.7241C21.1015 54.7241 20.833 54.7778 20.5966 54.8853C20.3639 54.9891 20.1795 55.1305 20.0434 55.3096C19.9109 55.485 19.8447 55.6802 19.8447 55.895L19.2002 55.8896C19.2002 55.6712 19.2539 55.46 19.3613 55.2559C19.4687 55.0518 19.6209 54.8691 19.8178 54.708C20.0148 54.5469 20.2493 54.4198 20.5214 54.3267C20.7972 54.23 21.0997 54.1816 21.4292 54.1816C21.8445 54.1816 22.2098 54.2515 22.5249 54.3911C22.8435 54.5308 23.0924 54.7402 23.2714 55.0195C23.4505 55.2988 23.54 55.6497 23.54 56.0723V58.8813C23.54 59.0819 23.5543 59.2896 23.583 59.5044C23.6152 59.7192 23.66 59.8965 23.7172 60.0361V60.1006H23.0351C22.9921 59.9717 22.9581 59.8105 22.9331 59.6172C22.9116 59.4202 22.9008 59.234 22.9008 59.0586ZM23.0512 56.7168L23.062 57.2109H21.7998C21.4703 57.2109 21.1749 57.2414 20.9135 57.3022C20.6557 57.3595 20.4373 57.4455 20.2583 57.5601C20.0792 57.6711 19.9414 57.8053 19.8447 57.9629C19.7516 58.1204 19.705 58.2995 19.705 58.5C19.705 58.7077 19.757 58.8975 19.8608 59.0693C19.9682 59.2412 20.1186 59.3791 20.312 59.4829C20.5089 59.5832 20.7417 59.6333 21.0102 59.6333C21.3683 59.6333 21.6834 59.5671 21.9555 59.4346C22.2312 59.3021 22.4586 59.1284 22.6377 58.9136C22.8167 58.6987 22.9366 58.4642 22.9975 58.21L23.2768 58.5806C23.2303 58.7596 23.1443 58.944 23.019 59.1338C22.8973 59.32 22.7379 59.4954 22.541 59.6602C22.344 59.8213 22.1113 59.9538 21.8427 60.0576C21.5778 60.1579 21.277 60.208 20.9404 60.208C20.5608 60.208 20.2296 60.1364 19.9467 59.9932C19.6674 59.8499 19.449 59.6548 19.2915 59.4077C19.1375 59.1571 19.0605 58.8742 19.0605 58.5591C19.0605 58.2726 19.1214 58.0166 19.2431 57.791C19.3649 57.5618 19.5403 57.3685 19.7695 57.2109C20.0022 57.0498 20.2815 56.9281 20.6074 56.8457C20.9368 56.7598 21.3056 56.7168 21.7138 56.7168H23.0512ZM25.9529 55.4062V62.335H25.3084V54.2891H25.9099L25.9529 55.4062ZM29.992 57.1411V57.2539C29.992 57.6872 29.9418 58.0846 29.8416 58.4463C29.7413 58.8079 29.5963 59.1213 29.4065 59.3862C29.2203 59.6476 28.9894 59.8499 28.7137 59.9932C28.4379 60.1364 28.1246 60.208 27.7737 60.208C27.4264 60.208 27.1166 60.1543 26.8445 60.0469C26.5724 59.9395 26.3378 59.7873 26.1409 59.5903C25.9475 59.3898 25.7918 59.1571 25.6736 58.8921C25.559 58.6235 25.4785 58.3299 25.4319 58.0112V56.5234C25.4856 56.1725 25.5734 55.8538 25.6951 55.5674C25.8168 55.2809 25.9726 55.0339 26.1624 54.8262C26.3557 54.6185 26.5849 54.4591 26.8499 54.3481C27.1149 54.2371 27.4174 54.1816 27.7576 54.1816C28.1121 54.1816 28.4272 54.2515 28.7029 54.3911C28.9822 54.5272 29.2167 54.7259 29.4065 54.9873C29.5999 55.2451 29.7449 55.5566 29.8416 55.9219C29.9418 56.2835 29.992 56.6899 29.992 57.1411ZM29.3474 57.2539V57.1411C29.3474 56.8009 29.3116 56.4858 29.24 56.1958C29.172 55.9058 29.0664 55.6533 28.9231 55.4385C28.7835 55.2201 28.6044 55.05 28.386 54.9282C28.1712 54.8065 27.9151 54.7456 27.6179 54.7456C27.31 54.7456 27.0468 54.7975 26.8284 54.9014C26.6136 55.0016 26.4345 55.1359 26.2913 55.3042C26.1481 55.4689 26.0353 55.6497 25.9529 55.8467C25.8706 56.0436 25.8097 56.237 25.7703 56.4268V58.1401C25.8383 58.4123 25.9475 58.6647 26.0979 58.8975C26.2483 59.1266 26.4488 59.311 26.6995 59.4507C26.9537 59.5868 27.2635 59.6548 27.6287 59.6548C27.9223 59.6548 28.1765 59.5939 28.3914 59.4722C28.6062 59.3504 28.7835 59.1803 28.9231 58.9619C29.0664 58.7435 29.172 58.4893 29.24 58.1992C29.3116 57.9092 29.3474 57.5941 29.3474 57.2539ZM31.9537 56.3945H33.8497C34.308 56.3945 34.6948 56.4751 35.0099 56.6362C35.325 56.7938 35.5631 57.0122 35.7242 57.2915C35.8889 57.5708 35.9713 57.8859 35.9713 58.2368C35.9713 58.5018 35.9247 58.7489 35.8316 58.978C35.7421 59.2036 35.6061 59.4006 35.4234 59.5688C35.2444 59.7371 35.0224 59.8678 34.7574 59.9609C34.496 60.054 34.1935 60.1006 33.8497 60.1006H31.5455V54.2891H32.1847V59.5474H33.8497C34.2042 59.5474 34.4907 59.4865 34.7091 59.3647C34.9275 59.2394 35.0851 59.0783 35.1817 58.8813C35.282 58.6844 35.3321 58.4749 35.3321 58.2529C35.3321 58.0345 35.282 57.8268 35.1817 57.6299C35.0851 57.4294 34.9275 57.2664 34.7091 57.1411C34.4907 57.0122 34.2042 56.9478 33.8497 56.9478H31.9537V56.3945ZM37.9425 54.2891V60.1006H37.3033V54.2891H37.9425ZM44.4737 59.0586L47.6158 54.2891H48.2604V60.1006H47.6158V55.3311L44.4737 60.1006H43.8399V54.2891H44.4737V59.0586ZM51.9933 57.2861H51.0587V56.8511H51.9396C52.2976 56.8511 52.5823 56.8099 52.7936 56.7275C53.0048 56.6416 53.157 56.5216 53.2501 56.3677C53.3432 56.2137 53.3897 56.0329 53.3897 55.8252C53.3897 55.6247 53.3396 55.4421 53.2394 55.2773C53.1427 55.1126 52.9869 54.9801 52.7721 54.8799C52.5572 54.7796 52.2726 54.7295 51.9181 54.7295C51.6459 54.7295 51.3953 54.7778 51.1661 54.8745C50.9369 54.9712 50.7525 55.1037 50.6129 55.272C50.4768 55.4403 50.4088 55.6354 50.4088 55.8574H49.7643C49.7643 55.5137 49.8645 55.2165 50.065 54.9658C50.2656 54.7152 50.5287 54.5218 50.8546 54.3857C51.184 54.2497 51.5385 54.1816 51.9181 54.1816C52.2475 54.1816 52.5429 54.2174 52.8043 54.2891C53.0657 54.3607 53.2877 54.4663 53.4703 54.606C53.6529 54.7456 53.7926 54.9193 53.8893 55.127C53.9859 55.3311 54.0343 55.5656 54.0343 55.8306C54.0343 56.0311 53.9877 56.2191 53.8946 56.3945C53.8051 56.57 53.6726 56.7257 53.4972 56.8618C53.3253 56.9943 53.1122 57.0981 52.858 57.1733C52.6074 57.2485 52.3191 57.2861 51.9933 57.2861ZM51.0587 56.9907H51.9933C52.3513 56.9907 52.6646 57.0247 52.9332 57.0928C53.2018 57.1572 53.4256 57.2539 53.6046 57.3828C53.7836 57.5117 53.9161 57.6711 54.0021 57.8608C54.0916 58.047 54.1363 58.2619 54.1363 58.5054C54.1363 58.7703 54.0826 59.0085 53.9752 59.2197C53.8714 59.431 53.721 59.61 53.524 59.7568C53.3271 59.9036 53.0925 60.0146 52.8204 60.0898C52.5483 60.165 52.2475 60.2026 51.9181 60.2026C51.5636 60.2026 51.2127 60.14 50.8653 60.0146C50.5216 59.8893 50.2369 59.696 50.0113 59.4346C49.7857 59.1732 49.673 58.8402 49.673 58.4355H50.3121C50.3121 58.6576 50.3819 58.8617 50.5216 59.0479C50.6612 59.234 50.851 59.3826 51.0909 59.4937C51.3344 59.6047 51.6101 59.6602 51.9181 59.6602C52.2654 59.6602 52.5554 59.6118 52.7882 59.5151C53.0209 59.4149 53.1964 59.2788 53.3146 59.1069C53.4327 58.9351 53.4918 58.7381 53.4918 58.5161C53.4918 58.2547 53.4345 58.0435 53.3199 57.8823C53.2089 57.7212 53.0388 57.603 52.8097 57.5278C52.5805 57.4526 52.2905 57.415 51.9396 57.415H51.0587V56.9907ZM60.3977 52.2803V60.1006H59.7371V52.2803H60.3977ZM65.2962 52.2803L61.8264 56.4321H60.1346L60.0755 55.8628H61.4397L64.469 52.2803H65.2962ZM64.7107 60.1006L61.4075 56.3569L61.7888 55.7769L65.5325 60.1006H64.7107ZM66.1407 57.2861V57.1089C66.1407 56.6864 66.2016 56.2961 66.3233 55.938C66.4451 55.5799 66.6188 55.2702 66.8443 55.0088C67.0735 54.7474 67.3474 54.5451 67.6661 54.4019C67.9848 54.255 68.3393 54.1816 68.7296 54.1816C69.1235 54.1816 69.4798 54.255 69.7984 54.4019C70.1171 54.5451 70.391 54.7474 70.6202 55.0088C70.8494 55.2702 71.0248 55.5799 71.1466 55.938C71.2683 56.2961 71.3292 56.6864 71.3292 57.1089V57.2861C71.3292 57.7087 71.2683 58.099 71.1466 58.457C71.0248 58.8115 70.8494 59.1195 70.6202 59.3809C70.3946 59.6423 70.1225 59.8464 69.8038 59.9932C69.4851 60.1364 69.1306 60.208 68.7403 60.208C68.3465 60.208 67.9902 60.1364 67.6715 59.9932C67.3528 59.8464 67.0789 59.6423 66.8497 59.3809C66.6205 59.1195 66.4451 58.8115 66.3233 58.457C66.2016 58.099 66.1407 57.7087 66.1407 57.2861ZM66.7799 57.1089V57.2861C66.7799 57.6048 66.8229 57.9074 66.9088 58.1938C66.9947 58.4767 67.1201 58.7292 67.2848 58.9512C67.4495 59.1696 67.6536 59.3415 67.8971 59.4668C68.1406 59.5921 68.4216 59.6548 68.7403 59.6548C69.0554 59.6548 69.3329 59.5921 69.5729 59.4668C69.8163 59.3415 70.0204 59.1696 70.1852 58.9512C70.3499 58.7292 70.4734 58.4767 70.5558 58.1938C70.6417 57.9074 70.6847 57.6048 70.6847 57.2861V57.1089C70.6847 56.7938 70.6417 56.4948 70.5558 56.2119C70.4734 55.929 70.3481 55.6766 70.1798 55.4546C70.0151 55.2326 69.811 55.0571 69.5675 54.9282C69.324 54.7993 69.0447 54.7349 68.7296 54.7349C68.4145 54.7349 68.1352 54.7993 67.8917 54.9282C67.6518 55.0571 67.4477 55.2326 67.2794 55.4546C67.1147 55.6766 66.9894 55.929 66.9034 56.2119C66.8211 56.4948 66.7799 56.7938 66.7799 57.1089ZM73.35 55.4062V62.335H72.7055V54.2891H73.3071L73.35 55.4062ZM77.3891 57.1411V57.2539C77.3891 57.6872 77.339 58.0846 77.2387 58.4463C77.1384 58.8079 76.9934 59.1213 76.8036 59.3862C76.6174 59.6476 76.3865 59.8499 76.1108 59.9932C75.835 60.1364 75.5217 60.208 75.1708 60.208C74.8235 60.208 74.5138 60.1543 74.2416 60.0469C73.9695 59.9395 73.7349 59.7873 73.538 59.5903C73.3447 59.3898 73.1889 59.1571 73.0707 58.8921C72.9561 58.6235 72.8756 58.3299 72.829 58.0112V56.5234C72.8827 56.1725 72.9705 55.8538 73.0922 55.5674C73.214 55.2809 73.3697 55.0339 73.5595 54.8262C73.7529 54.6185 73.982 54.4591 74.247 54.3481C74.512 54.2371 74.8145 54.1816 75.1547 54.1816C75.5092 54.1816 75.8243 54.2515 76.1 54.3911C76.3793 54.5272 76.6139 54.7259 76.8036 54.9873C76.997 55.2451 77.142 55.5566 77.2387 55.9219C77.339 56.2835 77.3891 56.6899 77.3891 57.1411ZM76.7446 57.2539V57.1411C76.7446 56.8009 76.7087 56.4858 76.6371 56.1958C76.5691 55.9058 76.4635 55.6533 76.3202 55.4385C76.1806 55.2201 76.0016 55.05 75.7831 54.9282C75.5683 54.8065 75.3123 54.7456 75.0151 54.7456C74.7071 54.7456 74.4439 54.7975 74.2255 54.9014C74.0107 55.0016 73.8316 55.1359 73.6884 55.3042C73.5452 55.4689 73.4324 55.6497 73.35 55.8467C73.2677 56.0436 73.2068 56.237 73.1674 56.4268V58.1401C73.2354 58.4123 73.3447 58.6647 73.495 58.8975C73.6454 59.1266 73.846 59.311 74.0966 59.4507C74.3508 59.5868 74.6606 59.6548 75.0258 59.6548C75.3194 59.6548 75.5737 59.5939 75.7885 59.4722C76.0033 59.3504 76.1806 59.1803 76.3202 58.9619C76.4635 58.7435 76.5691 58.4893 76.6371 58.1992C76.7087 57.9092 76.7446 57.5941 76.7446 57.2539ZM81.1179 60.208C80.7384 60.208 80.3892 60.1382 80.0705 59.9985C79.7554 59.8589 79.4797 59.6619 79.2434 59.4077C79.0107 59.1535 78.8298 58.8527 78.7009 58.5054C78.5756 58.1545 78.5129 57.7713 78.5129 57.356V57.125C78.5129 56.6774 78.5792 56.2728 78.7117 55.9111C78.8441 55.5495 79.0268 55.2397 79.2595 54.9819C79.4923 54.7241 79.7572 54.5272 80.0544 54.3911C80.3552 54.2515 80.6703 54.1816 80.9997 54.1816C81.3686 54.1816 81.6962 54.2479 81.9827 54.3804C82.2691 54.5093 82.509 54.6937 82.7024 54.9336C82.8993 55.1699 83.0479 55.451 83.1482 55.7769C83.2484 56.0991 83.2986 56.4554 83.2986 56.8457V57.2378H78.8997V56.6899H82.6594V56.6147C82.6523 56.2889 82.586 55.9845 82.4607 55.7017C82.3389 55.4152 82.1563 55.1825 81.9128 55.0034C81.6693 54.8244 81.365 54.7349 80.9997 54.7349C80.7276 54.7349 80.477 54.7922 80.2478 54.9067C80.0222 55.0213 79.8271 55.186 79.6623 55.4009C79.5012 55.6121 79.3759 55.8646 79.2864 56.1582C79.2004 56.4482 79.1575 56.7705 79.1575 57.125V57.356C79.1575 57.6782 79.204 57.979 79.2971 58.2583C79.3938 58.534 79.5299 58.7775 79.7053 58.9888C79.8844 59.2 80.0956 59.3647 80.3391 59.4829C80.5826 59.6011 80.8511 59.6602 81.1448 59.6602C81.4885 59.6602 81.7929 59.5975 82.0579 59.4722C82.3228 59.3433 82.5609 59.141 82.7722 58.8652L83.175 59.1768C83.0497 59.363 82.8922 59.5348 82.7024 59.6924C82.5162 59.8499 82.2924 59.9753 82.031 60.0684C81.7696 60.1615 81.4652 60.208 81.1179 60.208ZM85.2979 59.0586L88.44 54.2891H89.0845V60.1006H88.44V55.3311L85.2979 60.1006H84.6641V54.2891H85.2979V59.0586ZM94.5147 57.2861V57.1089C94.5147 56.6864 94.5756 56.2961 94.6973 55.938C94.8191 55.5799 94.9927 55.2702 95.2183 55.0088C95.4475 54.7474 95.7214 54.5451 96.0401 54.4019C96.3588 54.255 96.7133 54.1816 97.1036 54.1816C97.4975 54.1816 97.8537 54.255 98.1724 54.4019C98.4911 54.5451 98.765 54.7474 98.9942 55.0088C99.2234 55.2702 99.3988 55.5799 99.5206 55.938C99.6423 56.2961 99.7032 56.6864 99.7032 57.1089V57.2861C99.7032 57.7087 99.6423 58.099 99.5206 58.457C99.3988 58.8115 99.2234 59.1195 98.9942 59.3809C98.7686 59.6423 98.4965 59.8464 98.1778 59.9932C97.8591 60.1364 97.5046 60.208 97.1143 60.208C96.7204 60.208 96.3642 60.1364 96.0455 59.9932C95.7268 59.8464 95.4529 59.6423 95.2237 59.3809C94.9945 59.1195 94.8191 58.8115 94.6973 58.457C94.5756 58.099 94.5147 57.7087 94.5147 57.2861ZM95.1539 57.1089V57.2861C95.1539 57.6048 95.1968 57.9074 95.2828 58.1938C95.3687 58.4767 95.494 58.7292 95.6588 58.9512C95.8235 59.1696 96.0276 59.3415 96.2711 59.4668C96.5145 59.5921 96.7956 59.6548 97.1143 59.6548C97.4294 59.6548 97.7069 59.5921 97.9468 59.4668C98.1903 59.3415 98.3944 59.1696 98.5591 58.9512C98.7239 58.7292 98.8474 58.4767 98.9297 58.1938C99.0157 57.9074 99.0587 57.6048 99.0587 57.2861V57.1089C99.0587 56.7938 99.0157 56.4948 98.9297 56.2119C98.8474 55.929 98.7221 55.6766 98.5538 55.4546C98.3891 55.2326 98.185 55.0571 97.9415 54.9282C97.698 54.7993 97.4187 54.7349 97.1036 54.7349C96.7885 54.7349 96.5092 54.7993 96.2657 54.9282C96.0258 55.0571 95.8217 55.2326 95.6534 55.4546C95.4887 55.6766 95.3633 55.929 95.2774 56.2119C95.195 56.4948 95.1539 56.7938 95.1539 57.1089ZM102.969 54.2891V60.1006H102.33V54.2891H102.969ZM105.085 54.2891V54.8369H100.289V54.2891H105.085ZM114.091 54.2891V54.8477H110.691V54.2891H114.091ZM110.836 54.2891V60.1006H110.197V54.2891H110.836ZM114.617 54.2891V60.1006H113.973V54.2891H114.617ZM117.03 55.4062V62.335H116.386V54.2891H116.987L117.03 55.4062ZM121.069 57.1411V57.2539C121.069 57.6872 121.019 58.0846 120.919 58.4463C120.819 58.8079 120.674 59.1213 120.484 59.3862C120.298 59.6476 120.067 59.8499 119.791 59.9932C119.515 60.1364 119.202 60.208 118.851 60.208C118.504 60.208 118.194 60.1543 117.922 60.0469C117.65 59.9395 117.415 59.7873 117.218 59.5903C117.025 59.3898 116.869 59.1571 116.751 58.8921C116.636 58.6235 116.556 58.3299 116.509 58.0112V56.5234C116.563 56.1725 116.651 55.8538 116.773 55.5674C116.894 55.2809 117.05 55.0339 117.24 54.8262C117.433 54.6185 117.662 54.4591 117.927 54.3481C118.192 54.2371 118.495 54.1816 118.835 54.1816C119.19 54.1816 119.505 54.2515 119.78 54.3911C120.06 54.5272 120.294 54.7259 120.484 54.9873C120.677 55.2451 120.822 55.5566 120.919 55.9219C121.019 56.2835 121.069 56.6899 121.069 57.1411ZM120.425 57.2539V57.1411C120.425 56.8009 120.389 56.4858 120.317 56.1958C120.249 55.9058 120.144 55.6533 120.001 55.4385C119.861 55.2201 119.682 55.05 119.463 54.9282C119.249 54.8065 118.993 54.7456 118.695 54.7456C118.387 54.7456 118.124 54.7975 117.906 54.9014C117.691 55.0016 117.512 55.1359 117.369 55.3042C117.225 55.4689 117.113 55.6497 117.03 55.8467C116.948 56.0436 116.887 56.237 116.848 56.4268V58.1401C116.916 58.4123 117.025 58.6647 117.175 58.8975C117.326 59.1266 117.526 59.311 117.777 59.4507C118.031 59.5868 118.341 59.6548 118.706 59.6548C119 59.6548 119.254 59.5939 119.469 59.4722C119.684 59.3504 119.861 59.1803 120.001 58.9619C120.144 58.7435 120.249 58.4893 120.317 58.1992C120.389 57.9092 120.425 57.5941 120.425 57.2539ZM122.199 57.2861V57.1089C122.199 56.6864 122.259 56.2961 122.381 55.938C122.503 55.5799 122.677 55.2702 122.902 55.0088C123.131 54.7474 123.405 54.5451 123.724 54.4019C124.043 54.255 124.397 54.1816 124.787 54.1816C125.181 54.1816 125.538 54.255 125.856 54.4019C126.175 54.5451 126.449 54.7474 126.678 55.0088C126.907 55.2702 127.083 55.5799 127.204 55.938C127.326 56.2961 127.387 56.6864 127.387 57.1089V57.2861C127.387 57.7087 127.326 58.099 127.204 58.457C127.083 58.8115 126.907 59.1195 126.678 59.3809C126.453 59.6423 126.18 59.8464 125.862 59.9932C125.543 60.1364 125.189 60.208 124.798 60.208C124.404 60.208 124.048 60.1364 123.729 59.9932C123.411 59.8464 123.137 59.6423 122.908 59.3809C122.678 59.1195 122.503 58.8115 122.381 58.457C122.259 58.099 122.199 57.7087 122.199 57.2861ZM122.838 57.1089V57.2861C122.838 57.6048 122.881 57.9074 122.967 58.1938C123.053 58.4767 123.178 58.7292 123.343 58.9512C123.507 59.1696 123.711 59.3415 123.955 59.4668C124.198 59.5921 124.48 59.6548 124.798 59.6548C125.113 59.6548 125.391 59.5921 125.631 59.4668C125.874 59.3415 126.078 59.1696 126.243 58.9512C126.408 58.7292 126.531 58.4767 126.614 58.1938C126.7 57.9074 126.743 57.6048 126.743 57.2861V57.1089C126.743 56.7938 126.7 56.4948 126.614 56.2119C126.531 55.929 126.406 55.6766 126.238 55.4546C126.073 55.2326 125.869 55.0571 125.625 54.9282C125.382 54.7993 125.103 54.7349 124.787 54.7349C124.472 54.7349 124.193 54.7993 123.95 54.9282C123.71 55.0571 123.506 55.2326 123.337 55.4546C123.173 55.6766 123.047 55.929 122.961 56.2119C122.879 56.4948 122.838 56.7938 122.838 57.1089ZM129.451 59.0586L132.593 54.2891H133.238V60.1006H132.593V55.3311L129.451 60.1006H128.817V54.2891H129.451V59.0586ZM137.025 57.2861H136.091V56.8511H136.972C137.33 56.8511 137.614 56.8099 137.826 56.7275C138.037 56.6416 138.189 56.5216 138.282 56.3677C138.375 56.2137 138.422 56.0329 138.422 55.8252C138.422 55.6247 138.372 55.4421 138.271 55.2773C138.175 55.1126 138.019 54.9801 137.804 54.8799C137.589 54.7796 137.305 54.7295 136.95 54.7295C136.678 54.7295 136.427 54.7778 136.198 54.8745C135.969 54.9712 135.785 55.1037 135.645 55.272C135.509 55.4403 135.441 55.6354 135.441 55.8574H134.796C134.796 55.5137 134.897 55.2165 135.097 54.9658C135.298 54.7152 135.561 54.5218 135.887 54.3857C136.216 54.2497 136.571 54.1816 136.95 54.1816C137.28 54.1816 137.575 54.2174 137.836 54.2891C138.098 54.3607 138.32 54.4663 138.502 54.606C138.685 54.7456 138.825 54.9193 138.921 55.127C139.018 55.3311 139.066 55.5656 139.066 55.8306C139.066 56.0311 139.02 56.2191 138.927 56.3945C138.837 56.57 138.705 56.7257 138.529 56.8618C138.357 56.9943 138.144 57.0981 137.89 57.1733C137.64 57.2485 137.351 57.2861 137.025 57.2861ZM136.091 56.9907H137.025C137.383 56.9907 137.697 57.0247 137.965 57.0928C138.234 57.1572 138.458 57.2539 138.637 57.3828C138.816 57.5117 138.948 57.6711 139.034 57.8608C139.124 58.047 139.168 58.2619 139.168 58.5054C139.168 58.7703 139.115 59.0085 139.007 59.2197C138.903 59.431 138.753 59.61 138.556 59.7568C138.359 59.9036 138.125 60.0146 137.853 60.0898C137.58 60.165 137.28 60.2026 136.95 60.2026C136.596 60.2026 136.245 60.14 135.897 60.0146C135.554 59.8893 135.269 59.696 135.043 59.4346C134.818 59.1732 134.705 58.8402 134.705 58.4355H135.344C135.344 58.6576 135.414 58.8617 135.554 59.0479C135.693 59.234 135.883 59.3826 136.123 59.4937C136.367 59.6047 136.642 59.6602 136.95 59.6602C137.298 59.6602 137.588 59.6118 137.82 59.5151C138.053 59.4149 138.229 59.2788 138.347 59.1069C138.465 58.9351 138.524 58.7381 138.524 58.5161C138.524 58.2547 138.467 58.0435 138.352 57.8823C138.241 57.7212 138.071 57.603 137.842 57.5278C137.613 57.4526 137.323 57.415 136.972 57.415H136.091V56.9907ZM143.214 57.4204H141.173L141.162 56.8833H142.903C143.254 56.8833 143.545 56.8457 143.778 56.7705C144.014 56.6917 144.192 56.5754 144.31 56.4214C144.432 56.2674 144.493 56.0776 144.493 55.8521C144.493 55.6802 144.457 55.5298 144.385 55.4009C144.317 55.272 144.213 55.1663 144.074 55.084C143.938 55.0016 143.766 54.9408 143.558 54.9014C143.354 54.8584 143.116 54.8369 142.844 54.8369H141.356V60.1006H140.717V54.2891H142.844C143.198 54.2891 143.515 54.3213 143.794 54.3857C144.077 54.4466 144.319 54.5397 144.519 54.665C144.72 54.7904 144.872 54.9515 144.976 55.1484C145.083 55.3418 145.137 55.571 145.137 55.8359C145.137 56.015 145.103 56.1833 145.035 56.3408C144.967 56.4948 144.867 56.6344 144.734 56.7598C144.605 56.8815 144.446 56.9818 144.256 57.0605C144.066 57.1357 143.848 57.1823 143.601 57.2002L143.214 57.4204ZM143.214 60.1006H140.974L141.222 59.5527H143.214C143.536 59.5527 143.81 59.5116 144.036 59.4292C144.262 59.3468 144.432 59.2251 144.546 59.064C144.664 58.9028 144.723 58.7077 144.723 58.4785C144.723 58.2637 144.664 58.0775 144.546 57.9199C144.432 57.7624 144.262 57.6406 144.036 57.5547C143.81 57.4652 143.536 57.4204 143.214 57.4204H141.732L141.743 56.8833H143.649L143.923 57.0874C144.217 57.1125 144.471 57.1912 144.686 57.3237C144.901 57.4562 145.067 57.6245 145.185 57.8286C145.304 58.0291 145.363 58.2493 145.363 58.4893C145.363 58.7542 145.313 58.9888 145.212 59.1929C145.112 59.3934 144.967 59.5617 144.777 59.6978C144.591 59.8302 144.365 59.9305 144.1 59.9985C143.835 60.0666 143.54 60.1006 143.214 60.1006ZM146.503 57.2861V57.1089C146.503 56.6864 146.563 56.2961 146.685 55.938C146.807 55.5799 146.981 55.2702 147.206 55.0088C147.435 54.7474 147.709 54.5451 148.028 54.4019C148.347 54.255 148.701 54.1816 149.091 54.1816C149.485 54.1816 149.842 54.255 150.16 54.4019C150.479 54.5451 150.753 54.7474 150.982 55.0088C151.211 55.2702 151.387 55.5799 151.508 55.938C151.63 56.2961 151.691 56.6864 151.691 57.1089V57.2861C151.691 57.7087 151.63 58.099 151.508 58.457C151.387 58.8115 151.211 59.1195 150.982 59.3809C150.757 59.6423 150.484 59.8464 150.166 59.9932C149.847 60.1364 149.493 60.208 149.102 60.208C148.708 60.208 148.352 60.1364 148.033 59.9932C147.715 59.8464 147.441 59.6423 147.212 59.3809C146.982 59.1195 146.807 58.8115 146.685 58.457C146.563 58.099 146.503 57.7087 146.503 57.2861ZM147.142 57.1089V57.2861C147.142 57.6048 147.185 57.9074 147.271 58.1938C147.357 58.4767 147.482 58.7292 147.647 58.9512C147.811 59.1696 148.015 59.3415 148.259 59.4668C148.502 59.5921 148.784 59.6548 149.102 59.6548C149.417 59.6548 149.695 59.5921 149.935 59.4668C150.178 59.3415 150.382 59.1696 150.547 58.9512C150.712 58.7292 150.835 58.4767 150.918 58.1938C151.004 57.9074 151.047 57.6048 151.047 57.2861V57.1089C151.047 56.7938 151.004 56.4948 150.918 56.2119C150.835 55.929 150.71 55.6766 150.542 55.4546C150.377 55.2326 150.173 55.0571 149.929 54.9282C149.686 54.7993 149.407 54.7349 149.091 54.7349C148.776 54.7349 148.497 54.7993 148.254 54.9282C148.014 55.0571 147.81 55.2326 147.641 55.4546C147.477 55.6766 147.351 55.929 147.265 56.2119C147.183 56.4948 147.142 56.7938 147.142 57.1089ZM153.723 54.2891H154.362L154.265 56.3838C154.24 56.9424 154.177 57.4276 154.077 57.8394C153.98 58.2476 153.86 58.5967 153.717 58.8867C153.574 59.1732 153.416 59.4149 153.245 59.6118C153.076 59.8052 152.904 59.9681 152.729 60.1006H152.38L152.391 59.5527L152.552 59.5474C152.656 59.422 152.763 59.2806 152.874 59.123C152.989 58.9619 153.098 58.765 153.202 58.5322C153.305 58.2995 153.395 58.0094 153.47 57.6621C153.545 57.3148 153.596 56.8887 153.621 56.3838L153.723 54.2891ZM153.932 54.2891H157.149V60.1006H156.51V54.8906H153.932V54.2891ZM152.133 59.5474H157.756V61.8086H157.112V60.1006H152.745V61.8086H152.133V59.5474ZM159.729 59.0586L162.871 54.2891H163.515V60.1006H162.871V55.3311L159.729 60.1006H159.095V54.2891H159.729V59.0586ZM167.346 54.2891V60.1006H166.707V54.2891H167.346ZM169.463 54.2891V54.8369H164.666V54.2891H169.463ZM172.396 60.208C172.017 60.208 171.668 60.1382 171.349 59.9985C171.034 59.8589 170.758 59.6619 170.522 59.4077C170.289 59.1535 170.108 58.8527 169.979 58.5054C169.854 58.1545 169.791 57.7713 169.791 57.356V57.125C169.791 56.6774 169.858 56.2728 169.99 55.9111C170.123 55.5495 170.305 55.2397 170.538 54.9819C170.771 54.7241 171.036 54.5272 171.333 54.3911C171.634 54.2515 171.949 54.1816 172.278 54.1816C172.647 54.1816 172.975 54.2479 173.261 54.3804C173.548 54.5093 173.788 54.6937 173.981 54.9336C174.178 55.1699 174.326 55.451 174.427 55.7769C174.527 56.0991 174.577 56.4554 174.577 56.8457V57.2378H170.178V56.6899H173.938V56.6147C173.931 56.2889 173.865 55.9845 173.739 55.7017C173.617 55.4152 173.435 55.1825 173.191 55.0034C172.948 54.8244 172.643 54.7349 172.278 54.7349C172.006 54.7349 171.755 54.7922 171.526 54.9067C171.301 55.0213 171.106 55.186 170.941 55.4009C170.78 55.6121 170.654 55.8646 170.565 56.1582C170.479 56.4482 170.436 56.7705 170.436 57.125V57.356C170.436 57.6782 170.483 57.979 170.576 58.2583C170.672 58.534 170.808 58.7775 170.984 58.9888C171.163 59.2 171.374 59.3647 171.618 59.4829C171.861 59.6011 172.13 59.6602 172.423 59.6602C172.767 59.6602 173.071 59.5975 173.336 59.4722C173.601 59.3433 173.839 59.141 174.051 58.8652L174.454 59.1768C174.328 59.363 174.171 59.5348 173.981 59.6924C173.795 59.8499 173.571 59.9753 173.31 60.0684C173.048 60.1615 172.744 60.208 172.396 60.208ZM179.842 54.2891V54.8477H176.899V54.2891H179.842ZM180.363 54.2891V60.1006H179.724V54.2891H180.363ZM176.727 54.2891H177.366L177.237 57.0122C177.216 57.4526 177.18 57.8429 177.13 58.1831C177.083 58.5233 177.019 58.8151 176.936 59.0586C176.854 59.2985 176.748 59.4954 176.619 59.6494C176.494 59.8034 176.342 59.918 176.163 59.9932C175.984 60.0648 175.774 60.1006 175.534 60.1006H175.293V59.5205L175.491 59.5151C175.645 59.508 175.78 59.4757 175.894 59.4185C176.012 59.3612 176.113 59.2699 176.195 59.1445C176.281 59.0192 176.351 58.8545 176.405 58.6504C176.462 58.4463 176.507 58.1974 176.539 57.9038C176.575 57.6066 176.601 57.2575 176.619 56.8564L176.727 54.2891ZM183.42 57.4365H184.129L182.518 60.1006H181.809L183.42 57.4365ZM184.103 54.2891H186.385V60.1006H185.746V54.8369H184.103C183.762 54.8369 183.485 54.8942 183.27 55.0088C183.059 55.1198 182.903 55.2666 182.803 55.4492C182.706 55.6318 182.658 55.827 182.658 56.0347C182.658 56.2316 182.701 56.4196 182.787 56.5986C182.876 56.7777 183.014 56.9245 183.2 57.0391C183.386 57.1501 183.628 57.2056 183.925 57.2056H185.977V57.7588H183.925C183.621 57.7588 183.351 57.7158 183.114 57.6299C182.878 57.5439 182.677 57.424 182.513 57.27C182.352 57.1125 182.228 56.9281 182.142 56.7168C182.06 56.502 182.019 56.271 182.019 56.0239C182.019 55.7733 182.063 55.5441 182.153 55.3364C182.246 55.1252 182.38 54.9408 182.556 54.7832C182.735 54.6257 182.953 54.5039 183.211 54.418C183.472 54.332 183.77 54.2891 184.103 54.2891Z" fill="black"/>
<rect x="157.884" y="12.7593" width="9.85138" height="29.5542" fill="#4656E3"/>
<path d="M187.438 22.6107C175.617 22.6107 167.801 35.7787 167.736 42.3135H157.884C157.884 32.4621 167.736 12.7593 187.438 12.7593V22.6107Z" fill="#4D5EF6"/>
<path d="M146.161 12.759L139.173 12.759C139.173 24.2158 146.161 32.1337 152.236 32.1337C157.884 32.1337 164.692 24.0095 164.692 12.7589L157.884 12.7589C157.884 16.988 154.667 24.5389 152.236 24.5389C149.806 24.5389 146.161 17.073 146.161 12.759Z" fill="#F64D4D"/>
<path d="M187.438 32.4621C175.617 32.4621 167.801 19.294 167.736 12.7593H157.884C157.884 22.6107 167.736 42.3135 187.438 42.3135V32.4621Z" fill="#FE5F5F"/>
<rect x="136.31" y="12.7593" width="9.85138" height="29.5542" fill="#E34646"/>
<rect x="157.884" y="0.34668" width="9.85138" height="9.85138" fill="#FE5F5F"/>
<path d="M62.3993 9.99818H60.2681V4.0532H60.2219L57.8663 9.89921H56.4807L54.1318 4.0532H54.079V9.99818H51.9478V0.476967H54.7454L57.1471 6.59351H57.1999L59.6017 0.476967H62.3993V9.99818Z" fill="black"/>
<path d="M69.499 7.90655H66.3846L65.7776 9.99818H63.3099L66.51 0.476967H69.4726L72.6727 9.99818H70.0994L69.499 7.90655ZM66.8531 6.16462H69.0239L67.9682 2.49602H67.9154L66.8531 6.16462Z" fill="black"/>
<path d="M77.4762 0.476967C78.919 0.476967 80.0385 0.881657 80.8347 1.69104C81.6353 2.50921 82.0356 3.6727 82.0356 5.18149C82.0356 6.69908 81.6353 7.88236 80.8347 8.73133C80.0341 9.5759 78.9146 9.99818 77.4762 9.99818H73.5899V0.476967H77.4762ZM76.0114 8.04511H77.1529C78.7673 8.04511 79.5745 7.09277 79.5745 5.18809C79.5745 4.29953 79.3633 3.61551 78.941 3.13604C78.5187 2.66537 77.9227 2.43004 77.1529 2.43004H76.0114V8.04511Z" fill="black"/>
<path d="M89.7489 9.99818H83.2233V0.476967H89.7489V2.43004H85.6448V4.32372H89.5048V6.10524H85.6448V8.04511H89.7489V9.99818Z" fill="black"/>
<path d="M93.8464 9.99818V0.476967H96.2679V9.99818H93.8464Z" fill="black"/>
<path d="M97.7129 9.99818V0.476967H99.6462L103.684 6.01286H103.737V0.476967H106.033V9.99818H104.12L100.062 4.4095H100.009V9.99818H97.7129Z" fill="black"/>
<path d="M110.21 9.99818V0.476967H112.631V4.66023H112.684L115.924 0.476967H118.524L115.205 4.70642L118.715 9.99818H115.871L113.443 6.27679L112.631 7.30611V9.99818H110.21Z" fill="black"/>
<path d="M123.505 0.312012C124.948 0.312012 126.092 0.754092 126.936 1.63825C127.781 2.52241 128.203 3.72329 128.203 5.24087C128.203 6.75846 127.781 7.95714 126.936 8.8369C126.092 9.72106 124.948 10.1631 123.505 10.1631C122.058 10.1631 120.912 9.72106 120.068 8.8369C119.223 7.95714 118.801 6.75846 118.801 5.24087C118.801 3.72329 119.225 2.52241 120.074 1.63825C120.919 0.754092 122.063 0.312012 123.505 0.312012ZM123.505 2.27828C122.828 2.27828 122.287 2.54441 121.882 3.07666C121.473 3.61332 121.269 4.33472 121.269 5.24087C121.269 6.14263 121.471 6.86183 121.876 7.39849C122.28 7.93074 122.824 8.19687 123.505 8.19687C124.183 8.19687 124.724 7.93074 125.128 7.39849C125.538 6.86183 125.742 6.14263 125.742 5.24087C125.742 4.33472 125.538 3.61332 125.128 3.07666C124.724 2.54441 124.183 2.27828 123.505 2.27828Z" fill="black"/>
<path d="M131.806 5.00994H133.238C133.682 5.00994 134.029 4.88897 134.28 4.64703C134.531 4.4051 134.656 4.07739 134.656 3.6639C134.656 3.25481 134.527 2.9271 134.267 2.68077C134.007 2.43004 133.662 2.30467 133.231 2.30467H131.806V5.00994ZM131.806 9.99818H129.384V0.476967H133.475C134.654 0.476967 135.56 0.754092 136.194 1.30834C136.818 1.85379 137.131 2.62358 137.131 3.61771C137.131 4.21595 136.99 4.75261 136.708 5.22768C136.418 5.72474 136.018 6.08544 135.507 6.30978L137.408 9.99818H134.689L133.06 6.66609H131.806V9.99818Z" fill="black"/>
<path d="M144.87 9.99818H138.345V0.476967H144.87V2.43004H140.766V4.32372H144.626V6.10524H140.766V8.04511H144.87V9.99818Z" fill="black"/>
<path d="M151.897 7.90655H148.783L148.176 9.99818H145.708L148.908 0.476967H151.871L155.071 9.99818H152.498L151.897 7.90655ZM149.252 6.16462H151.422L150.367 2.49602H150.314L149.252 6.16462Z" fill="black"/>
</svg>
