<svg width="38" height="31" viewBox="0 0 38 31" fill="none" xmlns="http://www.w3.org/2000/svg">
<rect x="16.6772" y="9.88721" width="6.87461" height="20.6238" fill="#4656E3"/>
<path d="M37.3011 16.762C29.0516 16.762 23.5977 25.9511 23.5519 30.5112H16.6772C16.6772 23.6366 23.5519 9.88737 37.3011 9.88737V16.762Z" fill="#4D5EF6"/>
<path d="M8.49616 9.88708L3.62005 9.88708C3.62001 17.8821 8.49621 23.4074 12.736 23.4074C16.6769 23.4074 21.4276 17.7381 21.4276 9.88707L16.6769 9.88707C16.6769 12.8382 14.4318 18.1075 12.736 18.1075C11.0401 18.1075 8.49616 12.8976 8.49616 9.88708Z" fill="#F64D4D"/>
<path d="M37.3011 23.6364C29.0516 23.6364 23.5977 14.4474 23.5519 9.88721H16.6772C16.6772 16.7618 23.5519 30.5111 37.3011 30.5111V23.6364Z" fill="#FE5F5F"/>
<rect x="1.62158" y="9.88721" width="6.8746" height="20.6238" fill="#E34646"/>
<rect x="16.6772" y="1.2251" width="6.87461" height="6.87462" fill="#FE5F5F"/>
</svg>
