<svg width="21" height="21" viewBox="0 0 21 21" fill="none" xmlns="http://www.w3.org/2000/svg">
<g id="laptop 1" clip-path="url(#clip0_111_10327)">
<g id="Group">
<g id="Group_2">
<path id="Vector" d="M17.1667 15.9165C18.0875 15.9165 18.825 15.1707 18.825 14.2499L18.8333 5.08318C18.8333 4.16236 18.0875 3.4165 17.1666 3.4165H3.83332C2.9125 3.4165 2.16664 4.16232 2.16664 5.08318V14.2499C2.16664 15.1707 2.91246 15.9165 3.83332 15.9165H0.5C0.5 16.8373 1.24582 17.5832 2.16668 17.5832H18.8334C19.7542 17.5832 20.5 16.8374 20.5 15.9165H17.1667ZM3.83332 5.08318H17.1666V14.2499H3.83332V5.08318ZM10.5 16.7498C10.0417 16.7498 9.66668 16.3748 9.66668 15.9165C9.66668 15.4582 10.0417 15.0832 10.5 15.0832C10.9583 15.0832 11.3333 15.4582 11.3333 15.9165C11.3333 16.3748 10.9583 16.7498 10.5 16.7498Z" fill="url(#paint0_linear_111_10327)"/>
</g>
</g>
</g>
<defs>
<linearGradient id="paint0_linear_111_10327" x1="-10.625" y1="-6.42149" x2="23.8194" y2="-0.643875" gradientUnits="userSpaceOnUse">
<stop stop-color="#F64D4D"/>
<stop offset="1" stop-color="#4D5EF6"/>
</linearGradient>
<clipPath id="clip0_111_10327">
<rect width="20" height="20" fill="white" transform="translate(0.5 0.5)"/>
</clipPath>
</defs>
</svg>
