<svg width="28" height="26" viewBox="0 0 28 26" fill="none" xmlns="http://www.w3.org/2000/svg">
<g clip-path="url(#clip0_111_38525)">
<path d="M7.62206 2.30171C10.0596 2.57252 12.0907 4.33294 13.9865 6.63505C15.8823 4.33294 18.0624 2.30171 20.7707 2.30171C24.2915 2.30171 25.8972 5.49627 25.4969 8.21237C25.0907 10.9684 24.0205 11.3746 19.2679 17.1976L14.6637 22.6142C13.7658 23.5708 14.2075 23.5708 13.3096 22.6142L11.6846 20.583L10.3303 18.958L8.84082 17.1976C3.84343 11.3746 2.68492 9.88505 2.48923 8.21237C2.08288 4.73923 4.38515 1.94209 7.62206 2.30171Z" fill="url(#paint0_linear_111_38525)"/>
<path d="M20.7708 0.257812C17.95 0.257812 15.8154 1.9133 14 3.64323C12.2701 1.80749 10.0501 0.257812 7.22918 0.257812C3.25638 0.257812 0.458344 3.67368 0.458344 7.39852C0.458344 9.39676 1.27677 10.8364 2.17305 12.188L12.6958 24.8038C13.8773 26.0538 14.0999 26.0538 15.2814 24.8038L25.8278 12.188C26.8815 10.8364 27.5417 9.39676 27.5417 7.39852C27.5417 3.67372 24.7436 0.257812 20.7708 0.257812ZM24.1563 11.8377L14 23.9557L3.84376 11.7877C2.62926 10.0992 2.15105 8.96006 2.15105 7.39852C2.15105 4.48874 4.22886 1.86927 7.22918 1.84471C9.69717 1.8244 12.4944 4.34483 14 6.24491C15.4659 4.41086 18.3029 1.84471 20.7708 1.84471C23.6916 1.84471 25.849 4.48874 25.849 7.39852C25.849 8.96006 25.4706 10.1839 24.1563 11.8377Z" fill="black"/>
</g>
<defs>
<linearGradient id="paint0_linear_111_38525" x1="-10.4146" y1="-12.3553" x2="29.8289" y2="-7.1077" gradientUnits="userSpaceOnUse">
<stop stop-color="#F64D4D"/>
<stop offset="1" stop-color="#4D5EF6"/>
</linearGradient>
<clipPath id="clip0_111_38525">
<rect width="27.0833" height="26" fill="white" transform="translate(0.458344)"/>
</clipPath>
</defs>
</svg>
